# AST/ASF file generated using VICON BodyLanguage
# -----------------------------------------------
:version 1.10
:name VICON
:units
  mass 1.0
  length 0.45
  angle deg
:documentation
   .ast/.asf automatically generated from VICON data using
   VICON BodyBuilder and BodyLanguage model FoxedUp or BRILLIANT.MOD
:root
   order TX TY TZ RX RY RZ
   axis XYZ
   position 0 0 0  
   orientation 0 0 0 
:bonedata
  begin
     id 1 
     name lhipjoint
     direction 0.693937 -0.600361 0.397515 
     length 2.37164 
     axis 0 0 0  XYZ
  end
  begin
     id 2 
     name lfemur
     direction 0.34202 -0.939693 0  
     length 6.18497  
     axis 0 0 20  XYZ
    dof rx ry rz
    limits (-160.0 20.0)
           (-70.0 70.0)
           (-60.0 70.0)
  end
  begin
     id 3 
     name ltibia
     direction 0.34202 -0.939693 0   
     length 6.91601   
     axis 0 0 20   XYZ
    dof rx
    limits (-10.0 170.0)
  end
  begin
     id 4 
     name lfoot
     direction 0.0978718 -0.2689 0.958182   
     length 1.81453   
     axis -90 7.62852e-016 20   XYZ
    dof rx rz
    limits (-45.0 90.0)
           (-70.0 20.0)
  end
  begin
     id 5 
     name ltoes
     direction 1.53569e-011 -4.21951e-011 1   
     length 0.912052   
     axis -90 7.62852e-016 20   XYZ
    dof rx
    limits (-90.0 20.0)
  end
  begin
     id 6 
     name rhipjoint
     direction -0.643996 -0.637876 0.422354   
     length 2.23216  
     axis 0 0 0  XYZ 
  end
  begin
     id 7 
     name rfemur
     direction -0.34202 -0.939693 0   
     length 6.15404   
     axis 0 0 -20   XYZ
    dof rx ry rz
    limits (-160.0 20.0)
           (-70.0 70.0)
           (-70.0 60.0)
  end
  begin
     id 8 
     name rtibia
     direction -0.34202 -0.939693 0   
     length 6.86744   
     axis 0 0 -20   XYZ
    dof rx
    limits (-10.0 170.0)
 end
 begin
     id 9 
     name rfoot
     direction -0.118701 -0.326127 0.937844   
     length 1.9243  
     axis -90 -7.62852e-016 -20   XYZ
    dof rx rz
    limits (-45.0 90.0)
           (-20.0 70.0)
  end
  begin
     id 10 
     name rtoes
     direction -1.5356e-011 -4.2181e-011 1   
     length 0.958865   
     axis -90 -7.62852e-016 -20   XYZ
    dof rx
    limits (-90.0 20.0)
  end
  begin
     id 11 
     name lowerback
     direction 0.0310826 0.968686 -0.246334   
     length 2.00021   
     axis 0 0 0   XYZ
    dof rx ry rz
    limits (-20.0 45.0)
           (-30.0 30.0)
           (-30.0 30.0)
  end
  begin
     id 12 
     name upperback
     direction -0.0152834 0.999474 -0.0286152   
     length 2.03728   
     axis 0 0 0   XYZ
    dof rx ry rz
    limits (-20.0 45.0)
           (-30.0 30.0)
           (-30.0 30.0)
  end
  begin
     id 13 
     name thorax
     direction -0.0323701 0.996236 0.0804149   
     length 2.16   
     axis 0 0 0   XYZ
    dof rx ry rz
    limits (-20.0 45.0)
           (-30.0 30.0)
           (-30.0 30.0)
  end
  begin
     id 14 
     name lowerneck
     direction 0.0307935 0.982251 0.185027   
     length 1.43558   
     axis 0 0 0   XYZ
    dof rx ry rz
    limits (-20.0 45.0)
           (-30.0 30.0)
           (-30.0 30.0)
  end
  begin
     id 15 
     name upperneck
     direction -0.0927153 0.994775 0.0427454   
     length 1.44603   
     axis 0 0 0   XYZ
    dof rx ry rz
    limits (-20.0 45.0)
           (-30.0 30.0)
           (-30.0 30.0)
  end
  begin
     id 16
     name head
     direction -0.0341265 0.999406 -0.00472033  
     length 1.45931  
     axis 0 0 0   XYZ
    dof rx ry rz
    limits (-20.0 45.0)
           (-30.0 30.0)
           (-30.0 30.0)
  end
  begin
     id 17 
     name lclavicle
     direction 0.820755 0.555306 -0.134151  
     length 2.66075  
     axis 0 0 0   XYZ
    dof ry rz
    limits (-20.0 10.0)
           (0.0 20.0)
  end
  begin
     id 18 
     name lhumerus
     direction 1 -4.48971e-011 5.24853e-027   
     length 5.0546   
     axis -180 -30 -90   XYZ
    dof rx ry rz
    limits (-60.0 90.0)
           (-90.0 90.0)
           (-90.0 90.0)
  end
  begin
     id 19
     name lradius
     direction 1 -4.48971e-011 2.76575e-028   
     length 3.39013   
     axis -180 -30 -90   XYZ
    dof rx
    limits (-10.0 170.0)
  end
  begin
     id 20
     name lwrist
     direction 1 -4.48939e-011 -2.27826e-027   
     length 1.69507   
     axis 2.17013e-015 90 90   XYZ
    dof ry
    limits (-180.0 0.0)
 end
  begin
     id 21 
     name lhand
     direction 1 -4.49009e-011 -4.55652e-027   
     length 0.572425   
     axis 2.90745e-015 90 90   XYZ
    dof rx rz
    limits (-90.0 90.0)
           (-45.0 45.0)
  end
  begin
     id 22 
     name lfingers
     direction 1 -4.48955e-011 -9.11303e-027   
     length 0.461504   
     axis 5.81489e-015 90 90   XYZ
    dof rx
    limits (0.0 90.0)
  end
  begin
     id 23
     name lthumb
     direction 0.707107 -6.34929e-011 0.707107   
     length 0.66263   
     axis -90 45 2.85299e-015   XYZ
    dof rx rz
    limits (-45.0 45.0)
           (-45.0 45.0)
  end
  begin
     id 24 
     name rclavicle
     direction -0.754477 0.632921 -0.173712   
     length 2.73081  
     axis 0 0 0   XYZ 
    dof ry rz
    limits (-10.0 20.0)
           (-20.0 0.0)
  end
  begin
     id 25 
     name rhumerus
     direction -1 -4.48969e-011 5.1496e-027  
     length 5.0701   
     axis -180 30 90   XYZ
    dof rx ry rz
    limits (-90.0 60.0)
           (-90.0 90.0)
           (-90.0 90.0)
  end
  begin
     id 26 
     name rradius
     direction -1 -4.48967e-011 -7.15624e-028   
     length 3.14957   
     axis -180 30 90   XYZ
    dof rx
    limits (-10.0 170.0)
  end
  begin
     id 27 
     name rwrist
     direction -1 -4.48938e-011 -2.27826e-027   
     length 1.57479   
     axis 2.17013e-015 -90 -90   XYZ
    dof ry
    limits (-180.0 0.0)
  end
  begin
     id 28
     name rhand
     direction -1 -4.49008e-011 -4.55652e-027   
     length 0.718191   
     axis 2.90745e-015 -90 -90   XYZ
    dof rx rz
    limits (-90.0 90.0)
           (-45.0 45.0)
  end
  begin
     id 29
     name rfingers
     direction -1 -4.48953e-011 -9.11303e-027   
     length 0.579024   
     axis 5.81489e-015 -90 -90   XYZ
    dof rx
    limits (0.0 90.0)
  end
  begin
     id 30
     name rthumb
     direction -0.707107 -6.34937e-011 0.707107   
     length 0.831366   
     axis -90 -45 -2.85299e-015   XYZ
    dof rx rz
    limits (-45.0 45.0)
           (-45.0 45.0)
  end
:hierarchy
  begin
    root lhipjoint rhipjoint lowerback
    lhipjoint lfemur
    lfemur ltibia
    ltibia lfoot
    lfoot ltoes
    rhipjoint rfemur
    rfemur rtibia
    rtibia rfoot
    rfoot rtoes
    lowerback upperback
    upperback thorax
    thorax lowerneck lclavicle rclavicle
    lowerneck upperneck
    upperneck head
    lclavicle lhumerus
    lhumerus lradius
    lradius lwrist
    lwrist lhand lthumb
    lhand lfingers
    rclavicle rhumerus
    rhumerus rradius
    rradius rwrist
    rwrist rhand rthumb
    rhand rfingers
  end

#!OML:ASF H:\Male1\Project 1\Capture day 1\Session 1\Male1.ASF
:FULLY-SPECIFIED
:DEGREES
84
root 41.693 15.1122 0.251448 -58.2412 98.6965 -62.3197
lowerback 4.80107 2.01033 -8.76791
upperback 3.86136 2.56997 -2.82435
thorax 1.08467 1.22013 1.87712
lowerneck -10.2189 2.45791 7.24841
upperneck -4.29969 2.68449 -7.6191
head 0.637326 1.24652 -3.68565
rclavicle -3.72721e-015 1.53064e-014
rhumerus -43.7676 27.7979 -90.532
rradius 103.966
rwrist -29.7617
rhand -34.2388 22.3357
rfingers 7.12502
rthumb -7.41012 -7.51452
lclavicle -3.72721e-015 1.53064e-014
lhumerus -75.3717 -2.15683 88.1153
lradius 96.237
lwrist 18.1697
lhand -27.5176 -6.22781
lfingers 7.12502
lthumb -0.919997 23.75
rfemur -2.84534 2.89114 20.5519
rtibia 44.2218
rfoot -19.6712 -17.2377
rtoes -33.6034
lfemur -38.9131 -10.4702 -30.6839
ltibia 61.5397
lfoot -14.1078 15.5177
ltoes -8.82336
85
root 42.6263 15.3063 0.242205 -54.1403 98.7191 -57.8721
lowerback 3.76058 2.00782 -8.64032
upperback 4.04754 2.71391 -2.94424
thorax 1.85803 1.26557 1.72086
lowerneck -10.7317 2.30351 6.91664
upperneck -3.59047 2.4934 -6.90493
head 0.921816 1.14851 -3.37793
rclavicle 4.01048e-014 -2.06736e-014
rhumerus -43.8006 28.4612 -90.6283
rradius 106.311
rwrist -29.5307
rhand -34.2108 22.6254
rfingers 7.12502
rthumb -7.38303 -7.22573
lclavicle 4.01048e-014 -2.06736e-014
lhumerus -78.5857 -0.694504 85.9132
lradius 97.0282
lwrist 14.9567
lhand -26.2819 -5.99633
lfingers 7.12502
lthumb 0.273482 23.9832
rfemur 2.97876 2.43766 20.8211
rtibia 39.7984
rfoot -13.7551 -15.6931
rtoes -28.7937
lfemur -37.4322 -10.6467 -30.5337
ltibia 52.3431
lfoot -12.5649 14.8942
ltoes -8.69123
86
root 43.5281 15.4796 0.231995 -45.7344 97.3508 -49.2008
lowerback 3.09772 2.14822 -7.08724
upperback 3.93532 2.96007 -2.689
thorax 2.13338 1.40422 1.14711
lowerneck -11.4067 2.1617 6.44191
upperneck -2.3201 2.32054 -5.88697
head 1.41367 1.06252 -2.94688
rclavicle -3.6477e-014 2.98177e-014
rhumerus -44.27 28.911 -90.8865
rradius 108.823
rwrist -29.8732
rhand -34.0942 21.7284
rfingers 7.12502
rthumb -7.27052 -8.12665
lclavicle -3.6477e-014 2.98177e-014
lhumerus -82.2161 -0.188304 84.376
lradius 98.0978
lwrist 13.3625
lhand -26.908 -6.59744
lfingers 7.12502
lthumb -0.331264 23.382
rfemur 8.14203 2.52275 22.9099
rtibia 35.592
rfoot -9.66828 -15.4052
rtoes -38.4828
lfemur -36.2279 -10.6635 -28.3791
ltibia 43.7254
lfoot -10.2456 13.8603
ltoes -7.88851
87
root 44.4622 15.5898 0.213915 -30.6358 96.7433 -34.4421
lowerback 1.30843 1.99828 -5.65475
upperback 3.64126 2.86581 -2.40202
thorax 2.87884 1.3587 0.718954
lowerneck -11.6316 2.06738 6.43241
upperneck -1.1107 2.17545 -5.4972
head 1.83713 0.98546 -2.82721
rclavicle -2.43511e-014 3.97569e-016
rhumerus -45.3526 29.3818 -91.5159
rradius 111.206
rwrist -30.6683
rhand -33.5708 21.4851
rfingers 7.12502
rthumb -6.76528 -8.38681
lclavicle -2.43511e-014 3.97569e-016
lhumerus -85.7446 0.812444 82.5606
lradius 100.006
lwrist 14.4611
lhand -25.5934 -7.70946
lfingers 7.12502
lthumb 0.938473 22.2682
rfemur 12.2964 1.60117 24.7549
rtibia 32.4421
rfoot -7.82184 -15.5667
rtoes -33.7197
lfemur -35.6011 -11.7615 -26.0133
ltibia 35.9722
lfoot -8.13731 13.4253
ltoes -18.8065
88
root 45.3617 15.6587 0.192173 -13.689 96.2054 -17.2107
lowerback 0.505406 1.93801 -4.12465
upperback 3.44428 2.78058 -2.0148
thorax 3.17234 1.33726 0.295245
lowerneck -11.3604 2.07434 6.35578
upperneck -0.640622 2.19115 -5.07641
head 1.93462 1.00185 -2.67078
rclavicle 2.49475e-014 -2.78299e-015
rhumerus -46.4325 29.7306 -92.1505
rradius 113.983
rwrist -31.337
rhand -32.8448 19.7856
rfingers 7.12502
rthumb -6.06434 -10.1076
lclavicle 2.49475e-014 -2.78299e-015
lhumerus -88.5955 1.67394 81.0126
lradius 101.704
lwrist 16.4293
lhand -24.6217 -6.61425
lfingers 7.12502
lthumb 1.87691 23.3572
rfemur 15.7966 0.293653 26.7314
rtibia 31.1219
rfoot -8.87893 -19.1544
rtoes -24.8775
lfemur -34.2646 -13.0201 -23.2208
ltibia 29.8231
lfoot -7.28682 13.4799
ltoes -21.9975
89
root 46.191 15.7249 0.175745 4.58433 95.4673 0.750625
lowerback 0.40092 2.07477 -2.85537
upperback 2.82406 2.88751 -1.57489
thorax 2.6182 1.41724 0.0337999
lowerneck -11.8224 2.05833 5.87793
upperneck 0.23549 2.17783 -4.1962
head 2.28175 1.01264 -2.29033
rclavicle -2.74323e-014 1.66979e-014
rhumerus -47.9853 30.086 -93.0507
rradius 116.705
rwrist -31.4615
rhand -32.1345 19.3075
rfingers 7.12502
rthumb -5.37861 -10.6042
lclavicle -2.74323e-014 1.66979e-014
lhumerus -91.4018 2.76879 79.6724
lradius 103.647
lwrist 18.6673
lhand -23.7768 -8.12569
lfingers 7.12502
lthumb 2.69294 21.8371
rfemur 16.6545 -1.1404 28.0108
rtibia 32.2453
rfoot -12.3845 -23.7236
rtoes -18.9051
lfemur -33.9512 -13.8878 -20.1357
ltibia 25.6502
lfoot -7.54232 14.057
ltoes -18.0458
90
root 47.0695 15.7339 0.146491 9.91042 95.6402 6.37124
lowerback -0.360778 1.94929 -2.72927
upperback 3.00951 2.75171 -1.4576
thorax 3.24161 1.34136 0.115166
lowerneck -12.41 2.06962 5.74711
upperneck 0.64914 2.17818 -4.0502
head 2.52456 1.01309 -2.22063
rclavicle -8.54774e-015 2.8625e-014
rhumerus -49.4429 30.0832 -93.9552
rradius 119.37
rwrist -31.3064
rhand -31.1479 19.8675
rfingers 7.12502
rthumb -4.42599 -10.0663
lclavicle -8.54774e-015 2.8625e-014
lhumerus -92.4914 3.66802 78.8996
lradius 105.13
lwrist 20.7199
lhand -23.9773 -8.79417
lfingers 7.12502
lthumb 2.49924 21.1709
rfemur 17.1998 -3.97549 27.0035
rtibia 35.5565
rfoot -15.6712 -27.2052
rtoes -17.7646
lfemur -32.5186 -13.9439 -19.7792
ltibia 23.8368
lfoot -7.98605 14.6853
ltoes -15.8463
91
root 47.892 15.6569 0.130681 15.378 95.8924 12.5914
lowerback 0.00237563 1.91605 -2.38169
upperback 3.23233 2.69714 -1.39995
thorax 3.28072 1.32391 -0.0297275
lowerneck -12.2049 1.95231 5.48393
upperneck -0.108257 2.05691 -3.63104
head 2.20826 0.969218 -2.03231
rclavicle -1.3418e-014 7.95139e-016
rhumerus -51.3937 29.418 -95.2763
rradius 121.731
rwrist -30.3719
rhand -30.1552 22.2043
rfingers 7.12502
rthumb -3.46733 -7.74729
lclavicle -1.3418e-014 7.95139e-016
lhumerus -92.5691 4.16058 78.404
lradius 106.263
lwrist 21.1384
lhand -24.7717 -7.934
lfingers 7.12502
lthumb 1.73209 22.0387
rfemur 16.9041 -6.10755 26.4662
rtibia 40.6056
rfoot -18.7179 -29.1127
rtoes -13.2633
lfemur -30.8019 -12.2308 -20.1855
ltibia 23.8487
lfoot -7.09982 14.7909
ltoes -18.0976
92
root 48.6966 15.5178 0.118843 20.5633 96.3233 18.3415
lowerback 0.274104 1.80851 -1.98847
upperback 3.40471 2.54355 -1.30726
thorax 3.31998 1.25784 -0.16392
lowerneck -12.2533 1.90115 5.14727
upperneck -0.324164 2.01618 -3.04555
head 2.12304 0.967483 -1.77659
rclavicle -1.60022e-014 1.11319e-014
rhumerus -53.6598 28.7227 -96.8208
rradius 123.556
rwrist -29.8508
rhand -29.1733 24.2609
rfingers 7.12502
rthumb -2.51905 -5.70393
lclavicle -1.60022e-014 1.11319e-014
lhumerus -91.6936 4.63236 78.2015
lradius 106.829
lwrist 20.3586
lhand -25.5068 -7.9629
lfingers 7.12502
lthumb 1.02208 22.0144
rfemur 15.5854 -7.90585 25.9911
rtibia 46.4998
rfoot -19.9572 -29.2905
rtoes -10.0229
lfemur -29.155 -9.28856 -20.9998
ltibia 25.4538
lfoot -6.64274 13.2224
ltoes -15.9058
